Coordinates
version=1
nRows=11
nColumns=40
inDegrees=yes

Units are S.I. units (second, meters, Newtons, ...)
Angles are in degrees.

endheader
time	pelvis_tilt	pelvis_list	pelvis_rotation	pelvis_tx	pelvis_ty	pelvis_tz	hip_flexion_r	hip_adduction_r	hip_rotation_r	knee_angle_r	knee_angle_r_beta	ankle_angle_r	subtalar_angle_r	mtp_angle_r	hip_flexion_l	hip_adduction_l	hip_rotation_l	knee_angle_l	knee_angle_l_beta	ankle_angle_l	subtalar_angle_l	mtp_angle_l	lumbar_extension	lumbar_bending	lumbar_rotation	arm_flex_r	arm_add_r	arm_rot_r	elbow_flex_r	pro_sup_r	wrist_flex_r	wrist_dev_r	arm_flex_l	arm_add_l	arm_rot_l	elbow_flex_l	pro_sup_l	wrist_flex_l	wrist_dev_l
     22.41000000	     -2.27443133	     -3.82814534	      0.22262987	      1.05453419	      0.93100256	      0.41861407	     30.97480681	     -8.40271758	     -6.31754867	     72.99291073	     72.99291073	     -5.70039450	    -18.07554915	      4.79871286	     13.49550572	     -4.52338101	     -6.14241651	     24.32571525	     24.32571525	     15.11840965	    -10.69162536	      0.67565313	    -12.41061930	      5.50002876	      1.63790900	      0.54251498	    -13.94091034	     -7.18599459	     76.24221846	     45.06896561	      0.00000000	      0.00000000	      8.15327067	    -12.22807300	     -0.77687592	     58.13298966	     45.98785528	      0.00000000	      0.00000000
     22.42135714	     -2.24344690	     -3.99553144	     -0.00819768	      1.05418505	      0.93201354	      0.41833097	     32.13047829	     -7.79896264	     -6.19732282	     71.64299856	     71.64299856	     -5.26149782	    -17.68487915	      4.31607385	     12.35713121	     -4.64532139	     -6.36447231	     23.38380567	     23.38380567	     15.24976134	    -10.57552518	      0.84731446	    -12.62119160	      5.68772605	      2.34832135	     -1.34884418	    -14.38497913	     -7.12965803	     73.07362324	     45.16782896	      0.00000000	      0.00000000	     10.19947536	    -12.24806306	     -0.87238393	     59.90510047	     46.05093220	      0.00000000	      0.00000000
     22.43271429	     -2.26536800	     -4.08325545	     -0.14592985	      1.05373093	      0.93258661	      0.41802918	     33.21424845	     -7.36395730	     -6.16920001	     70.13774707	     70.13774707	     -5.16728442	    -17.24349802	      2.57848638	     11.43970080	     -4.76480341	     -6.81032189	     22.72483535	     22.72483535	     15.48954289	     -9.89055557	      0.41246071	    -12.64769509	      5.71209927	      2.00652005	     -1.29598092	    -13.92590802	     -7.61790219	     66.11635210	     45.42417009	      0.00000000	      0.00000000	     11.51303989	    -13.20696128	     -0.12538181	     62.49791262	     46.10321920	      0.00000000	      0.00000000
     22.44407143	     -2.23564245	     -4.15155567	     -0.27239206	      1.05345518	      0.93328873	      0.41760389	     34.07659757	     -6.99291555	     -6.21330142	     68.38219896	     68.38219896	     -4.77643010	    -16.49031848	      2.19277777	     10.40655557	     -4.80791195	     -7.17222532	     21.94520932	     21.94520932	     15.68604641	     -9.37913582	      0.35209227	    -12.88362439	      5.79556894	      2.56357667	     -3.01701108	    -14.36024716	     -7.35516862	     63.05833342	     45.51127893	      0.00000000	      0.00000000	     13.42157505	    -13.17240389	     -0.32299632	     64.46532038	     46.17836456	      0.00000000	      0.00000000
     22.45542857	     -2.27171466	     -4.21468243	     -0.37569307	      1.05311554	      0.93370177	      0.41736270	     34.86412955	     -6.61209015	     -6.27667945	     66.34715680	     66.34715680	     -4.68482170	    -15.85858052	      1.06679585	      9.51388714	     -4.90692874	     -7.69896512	     21.27031124	     21.27031124	     15.85281494	     -8.59945439	     -0.17390870	    -12.88570877	      5.78775779	      1.83833621	     -2.21110006	    -14.00231102	     -7.08261128	     55.44144688	     45.75793328	      0.00000000	      0.00000000	     14.32038759	    -14.22825274	     -0.21028241	     67.34324402	     46.31327648	      0.00000000	      0.00000000
     22.46678571	     -2.28071548	     -4.25172142	     -0.46513638	      1.05288392	      0.93400202	      0.41711544	     35.49302271	     -6.27003166	     -6.35641541	     64.06875289	     64.06875289	     -4.37665140	    -14.97479302	      0.66783025	      8.58409647	     -4.95678677	     -8.17197992	     20.58054686	     20.58054686	     16.06005201	     -7.84812539	     -0.55483308	    -12.99507340	      5.81337230	      1.68455446	     -2.58912857	    -14.07423183	     -6.57134463	     50.39263054	     45.89756517	      0.00000000	      0.00000000	     15.65063485	    -14.66698526	     -0.51238535	     69.73410709	     46.46244552	      0.00000000	      0.00000000
     22.47814286	     -2.30929588	     -4.24124135	     -0.55086704	      1.05272779	      0.93413690	      0.41690418	     35.99492993	     -5.99486513	     -6.45460564	     61.48702129	     61.48702129	     -4.05874858	    -13.95420050	      0.38624484	      7.65371328	     -4.93521407	     -8.61318370	     19.84537224	     19.84537224	     16.24326478	     -7.15951568	     -0.89946827	    -13.07924269	      5.81053484	      1.54734537	     -3.08420643	    -14.14558823	     -6.12361701	     45.87589101	     46.01554322	      0.00000000	      0.00000000	     16.93505932	    -15.10077392	     -0.78362097	     72.10767907	     46.61301140	      0.00000000	      0.00000000
     22.48950000	     -2.45770494	     -4.25087815	     -0.55335570	      1.05251971	      0.93394961	      0.41665494	     36.46011077	     -5.74895388	     -6.66452202	     58.58282178	     58.58282178	     -3.64924093	    -12.84973016	      0.43469513	      6.93198032	     -4.89553268	     -8.78940840	     19.20703443	     19.20703443	     16.46229971	     -6.72875526	     -0.96772364	    -13.06698585	      5.91493496	      1.52163554	     -4.76558631	    -14.34109264	     -5.97538580	     44.48715398	     46.04707045	      0.00000000	      0.00000000	     18.55121083	    -15.38034136	     -1.10931232	     73.45918037	     46.67446066	      0.00000000	      0.00000000
     22.50085714	     -2.41334615	     -4.09154700	     -0.64255836	      1.05273999	      0.93391123	      0.41652078	     36.50350062	     -5.63661348	     -6.77413759	     55.26552175	     55.26552175	     -3.54792756	    -11.69571272	     -0.48310339	      5.81851775	     -4.71890763	     -9.43172011	     18.32492490	     18.32492490	     16.55587585	     -5.76883478	     -1.64988781	    -13.19068278	      5.70865327	      1.35080593	     -4.70999515	    -14.27875212	     -5.37137128	     38.67384178	     46.19945100	      0.00000000	      0.00000000	     19.50424854	    -15.87734993	     -1.23435805	     76.76781787	     46.85659851	      0.00000000	      0.00000000
     22.51221429	     -2.48616770	     -3.99161455	     -0.71779005	      1.05293304	      0.93354635	      0.41647069	     36.51006731	     -5.46961810	     -6.97898532	     51.65851621	     51.65851621	     -3.17443821	    -10.32378347	     -0.62690957	      4.89915610	     -4.58356154	     -9.89173066	     17.55520878	     17.55520878	     16.77388480	     -5.04495440	     -1.90208032	    -13.22469954	      5.66106815	      1.60266890	     -6.30756411	    -14.43889353	     -5.09910666	     36.97316495	     46.23037354	      0.00000000	      0.00000000	     20.92542932	    -15.99168569	     -1.29925534	     78.78723427	     46.93101839	      0.00000000	      0.00000000
     22.52357143	     -2.59019605	     -3.92847657	     -0.72566071	      1.05324682	      0.93300902	      0.41640163	     36.31446589	     -5.28258504	     -7.29790931	     47.68659612	     47.68659612	     -2.81725884	     -8.91552566	     -0.58327459	      4.05154978	     -4.47148943	    -10.16945489	     16.85056851	     16.85056851	     16.99602770	     -4.44600787	     -2.10795379	    -13.19870765	      5.70873413	      1.66614108	     -7.90625913	    -14.55367212	     -4.89965823	     35.64302044	     46.25578211	      0.00000000	      0.00000000	     22.23835645	    -16.18218941	     -1.37865588	     80.52853362	     46.98752195	      0.00000000	      0.00000000
